Full Credits to (Pitic):


 ######## ######## ######## ##          ######## ########  ######## ######
 ##       ##       ##       ##          ##       ##     ## ##       ##       
 ##       ##       ##       ##          ##       ##     ## ##       ##       
 ######   ######   ######   ##          ######   ########  ######   ######   
 ##       ##       ##       ##          ##       ##   ##   ##       ##       
 ##       ##       ##       ##          ##       ##    ##  ##       ##       
 ##       ######## ######## ########    ##       ##     ## ######## ###### 

 Genre:Drama
 Language:English
 IMDb:  http://www.imdb.com/title/tt1172991/
 Source:BluRay.x264.DiVERSiFY Thx.
 Subtitles:Romana

 Format : MPEG-4
 Format profile : Base Media
 Codec ID : isom
 File size : 2.51 GiB
 Duration : 1h 44mn
 Overall bit rate : 3 439 Kbps

 Video
 ID : 1
 Format : AVC
 Format/Info : Advanced Video Codec
 Format profile : High@L4.1
 Format settings, CABAC : Yes
 Format settings, ReFrames : 3 frames
 Codec ID : avc1
 Codec ID/Info : Advanced Video Coding
 Duration : 1h 44mn
 Bit rate mode : Variable
 Bit rate : 3 000 Kbps
 Maximum bit rate : 18.7 Mbps
 Width : 1 280 pixels
 Height : 720 pixels
 Display aspect ratio : 16:9
 Frame rate mode : Constant
 Frame rate : 23.976 fps
 Color space : YUV
 Chroma subsampling : 4:2:0
 Bit depth : 8 bits
 Scan type : Progressive
 Bits/(Pixel*Frame) : 0.136
 Stream size : 2.20 GiB (88%)
 Writing library : x264

 Audio
 ID : 2
 Format : AAC
 Format/Info : Advanced Audio Codec
 Format version : Version 4
 Format profile : LC
 Format settings, SBR : No
 Codec ID : 40
 Duration : 1h 44mn
 Bit rate mode : Variable
 Bit rate : 424 Kbps
 Maximum bit rate : 528 Kbps
 Channel(s) : 6 channels
 Channel positions : Front: L C R, Side: L R, LFE
 Sampling rate : 48.0 KHz
 Stream size : 317 MiB (12%)


 Plot:
 The story centers on a year in the life of three men trying to survive a 
 round of corporate downsizing at a major company - and how that affects 
 them, their families, and their communities.


 Full Credits to (Pitic):
 ######## ######## ######## ##          ######## ########  ######## ######
 ##       ##       ##       ##          ##       ##     ## ##       ##       
 ##       ##       ##       ##          ##       ##     ## ##       ##       
 ######   ######   ######   ##          ######   ########  ######   ######   
 ##       ##       ##       ##          ##       ##   ##   ##       ##       
 ##       ##       ##       ##          ##       ##    ##  ##       ##       
 ##       ######## ######## ########    ##       ##     ## ######## ######